<?xml version="1.0" encoding="UTF-8"?>
<svg id="Layer_1" xmlns="http://www.w3.org/2000/svg" version="1.1" viewBox="0 0 2172 456">
  <!-- Generator: Adobe Illustrator 30.4.0, SVG Export Plug-In . SVG Version: 2.1.4 Build 226)  -->
  <defs>
    <style>
      .st0 {
        fill: #410c83;
      }

      .st1 {
        fill: #ef7514;
      }
    </style>
  </defs>
  <g>
    <g>
      <path class="st0" d="M1096.81,436.32l-79.44.36-.17-290.18-146.04,224.66c-9.9,15.23-30.16,18.41-46.75,18.71-17.75-.54-36.49-4.91-46.5-20.3l-144.43-222.05-.55,289.01-79.29.06V58.31c1.35-15.34,10.41-27.06,23.68-33.75,20.46-10.31,61.93-7.17,75.79,13.96l44.2,67.38,127.91,193.88,52.43-79.41,120.05-182.76c12.16-13.77,29.1-18.65,47.07-18.55,13.39.08,25.93,2,36.48,10.44,9.33,7.46,14.86,17.23,15.52,29.9l.02,376.91Z"/>
      <g>
        <path class="st0" d="M1503.81,436.54h-342.8s50.05-71.24,50.05-71.24h285.89c23.09-2.45,40.35-20.21,42.63-43.18,3.28-26.48-14.71-50.41-41.24-54.15l-203.14-.08c-39.54-.02-78.91-19.25-100.92-51.64-32.71-48.13-27.28-113.56,12.49-155.91,23.43-24.95,55.38-38.29,89.76-40.04l344.19.07-50.19,73.69-292.5-.03c-27.11,3.95-45.67,27.28-44.79,54.33.8,23.73,17.27,43.65,41.09,47.06l205.07.27c22.02.03,42.6,6.37,61.32,16.91,60.26,33.92,75.59,113.01,38.58,170.28-21,32.48-56.26,51.43-95.47,53.66Z"/>
        <path class="st0" d="M1891.51,112.62l-50.93,93.63-122.69,230.2-95.13.14,40.51-77.12,102.7-192.31,59.91-114.29c13.07-24.93,41.07-34.18,68.65-33.69,15.65.28,30.16,3.4,43.3,11.36,10.75,6.52,16.97,15.01,22.76,25.94l49.65,93.77,101.89,194.16,47.87,91.83-94.09.51-131.35-245.29-43.05-78.85Z"/>
      </g>
    </g>
    <path class="st0" d="M281.27,361.48l-140.52-135.29,196.57-.52c16.6-.04,30.27-9.66,41.29-20.89,17.13-20.8,22.24-49.3,11.28-74.28-9.74-22.2-31.91-36.98-57.29-36.98l-226.21-.02-.14,123.87.21,219.19-80.42.07.08-417.12,317.92.04,25.36,2.95c61.99,13.03,102.71,60.69,107.59,123.79,5.56,72-40.65,133.58-111.93,147.82-13.14,2.63-25.68,1.3-39.4,2l111.15,103.29,39.36,36.83-117.42.41-77.46-75.14Z"/>
  </g>
  <path class="st1" d="M1860.6,436.98l-23.72-.2-48.04.57c-1.13,1.52-3.32.06-2.66-1.69l41.46-74.88,51.19-93.24,12.95-21.62,104.99,190.4-81.27.6c-7.95.06-15.46-1.53-23.34.68-10.32-2.41-20.62-.52-31.56-.61Z"/>
</svg>